# xmcd
#
# Track frame offsets:
#	150
#	14465
#	33682
#	44149
#	56600
#	71355
#	83094
#	98052
#	112233
#	125833
#	141183
#
# Disc length: 2047 seconds
#
# Revision: 1
# Processed by: cddbd v1.5.2PL0 Copyright (c) Steve Scherf et al.
# Submitted via: audiograbber 1.83.01
#
DISCID=a307fd0b
DTITLE=Rivoli Ron and Kay - Kay Kountryfied
DYEAR=2001
DGENRE=Country
TTITLE0=I Feel Lucky
TTITLE1=My Stronest Weakness
TTITLE2=Who's Cheatin' Who
TTITLE3=The End Of The World
TTITLE4=102
TTITLE5=Sweet Dreams
TTITLE6=Jealous Bone
TTITLE7=She's Got You
TTITLE8=Talkin' In Your Sleep
TTITLE9=The Bug
TTITLE10=Crazy
EXTD=
EXTT0=
EXTT1=
EXTT2=
EXTT3=
EXTT4=
EXTT5=
EXTT6=
EXTT7=
EXTT8=
EXTT9=
EXTT10=
PLAYORDER=
